<?xml version="1.0" encoding="utf-8"?>
<!-- Generator: Adobe Illustrator 23.0.2, SVG Export Plug-In . SVG Version: 6.00 Build 0)  -->
<svg version="1.1" id="Layer_1" xmlns="http://www.w3.org/2000/svg" xmlns:xlink="http://www.w3.org/1999/xlink" x="0px" y="0px"
	 viewBox="0 0 1920 1080" style="enable-background:new 0 0 1920 1080;" xml:space="preserve">
<style type="text/css">
	.st0{fill:url(#SVGID_1_);}
</style>
<g>
	<linearGradient id="SVGID_1_" gradientUnits="userSpaceOnUse" x1="1663.0911" y1="613.4052" x2="1289.3794" y2="8.0433">
		<stop  offset="6.501118e-02" style="stop-color:#FF512F"/>
		<stop  offset="0.1248" style="stop-color:#FB4B38"/>
		<stop  offset="0.3376" style="stop-color:#EE3A53"/>
		<stop  offset="0.5536" style="stop-color:#E42E67"/>
		<stop  offset="0.7728" style="stop-color:#DF2672"/>
		<stop  offset="1" style="stop-color:#DD2476"/>
	</linearGradient>
	<path class="st0" d="M1292.2,814.3c-34.2,0-67.4-6.8-98.7-20.2c-32.4-13.9-61-34.1-85.2-60.2c-45.4-49.1-69-113.1-66.4-180
		c2.6-66.9,31.1-128.8,80.1-174.3L1536.9,0.4L1919.6,1l2.4,334.3l-459.8,412.3C1415.8,790.6,1355.4,814.3,1292.2,814.3
		C1292.2,814.3,1292.2,814.3,1292.2,814.3z"/>
	<path d="M1537.1,0.9l382.1,0.6l1.1,157.3l1.2,176.3L1691.9,541l-230,206.2c-46.3,42.9-106.6,66.6-169.7,66.6
		c-34.1,0-67.2-6.8-98.5-20.2c-32.3-13.8-60.9-34.1-85-60.1c-22.9-24.8-40.3-53.3-51.6-84.8c-11-30.4-15.9-62.3-14.6-94.8
		c1.3-32.5,8.6-63.9,21.9-93.4c13.8-30.5,33.3-57.6,58-80.6l207.4-189.7L1537.1,0.9 M1920-18c-0.2,6.2-0.3,12.3-0.5,18.5
		c-127.6-0.2-255.2-0.4-382.8-0.6c-138.3,126.5-276.6,252.9-414.9,379.4c-101.7,94.2-107.9,253.1-13.7,354.9l0,0
		c49.4,53.5,116.7,80.6,184.2,80.6c61,0,122.1-22.1,170.3-66.8c153.3-137.5,306.6-275,459.9-412.5C1921.7,217.7,1920.8,99.8,1920-18
		L1920-18z"/>
</g>
</svg>
